<?xml version="1.0" encoding="UTF-8"?>
<svg xmlns="http://www.w3.org/2000/svg" viewBox="0 0 18 16" width="576" height="512" shape-rendering="crispEdges">
  <!-- Pixel art floppy disk - pink/red tones, transparent background -->
  <rect x="0" y="0" width="1" height="1" fill="#6b0626"/>
  <rect x="16" y="0" width="1" height="1" fill="#6b0626"/>
  <rect x="17" y="1" width="1" height="1" fill="#6b0626"/>
  <rect x="0" y="15" width="1" height="1" fill="#6b0626"/>
  <rect x="17" y="15" width="1" height="1" fill="#6b0626"/>
  <rect x="2" y="0" width="3" height="1" fill="#8f0530"/>
  <rect x="2" y="1" width="1" height="1" fill="#8f0530"/>
  <rect x="4" y="1" width="1" height="4" fill="#8f0530"/>
  <rect x="10" y="1" width="2" height="1" fill="#8f0530"/>
  <rect x="1" y="2" width="2" height="1" fill="#8f0530"/>
  <rect x="2" y="3" width="1" height="2" fill="#8f0530"/>
  <rect x="3" y="5" width="2" height="1" fill="#8f0530"/>
  <rect x="13" y="5" width="1" height="1" fill="#8f0530"/>
  <rect x="2" y="7" width="1" height="1" fill="#8f0530"/>
  <rect x="15" y="7" width="1" height="1" fill="#8f0530"/>
  <rect x="1" y="0" width="1" height="1" fill="#db1452"/>
  <rect x="14" y="0" width="2" height="1" fill="#db1452"/>
  <rect x="0" y="1" width="2" height="1" fill="#db1452"/>
  <rect x="14" y="1" width="3" height="1" fill="#db1452"/>
  <rect x="0" y="2" width="1" height="1" fill="#db1452"/>
  <rect x="14" y="2" width="4" height="4" fill="#db1452"/>
  <rect x="0" y="3" width="2" height="2" fill="#db1452"/>
  <rect x="0" y="5" width="3" height="1" fill="#db1452"/>
  <rect x="0" y="6" width="18" height="1" fill="#db1452"/>
  <rect x="0" y="7" width="2" height="8" fill="#db1452"/>
  <rect x="16" y="7" width="2" height="8" fill="#db1452"/>
  <rect x="1" y="15" width="1" height="1" fill="#db1452"/>
  <rect x="16" y="15" width="1" height="1" fill="#db1452"/>
  <rect x="13" y="0" width="1" height="1" fill="#c8426c"/>
  <rect x="2" y="15" width="1" height="1" fill="#c8426c"/>
  <rect x="15" y="15" width="1" height="1" fill="#c8426c"/>
  <rect x="5" y="0" width="8" height="1" fill="#f26e96"/>
  <rect x="5" y="5" width="8" height="1" fill="#f26e96"/>
  <rect x="3" y="15" width="12" height="1" fill="#f26e96"/>
  <rect x="5" y="1" width="5" height="4" fill="#fb779f"/>
  <rect x="12" y="1" width="2" height="4" fill="#fb779f"/>
  <rect x="3" y="7" width="12" height="1" fill="#fb779f"/>
  <rect x="2" y="8" width="14" height="7" fill="#fb779f"/>
  <rect x="3" y="1" width="1" height="4" fill="#c80542"/>
  <rect x="10" y="2" width="2" height="3" fill="#c80542"/>
</svg>