<svg width="1600" height="1000" viewBox="0 0 1600 1000" fill="none" xmlns="http://www.w3.org/2000/svg">
  <rect width="1600" height="1000" fill="#0A0B10"/>
  <rect x="44" y="44" width="1512" height="912" rx="36" fill="#12141A" stroke="#252833" stroke-width="4"/>
  <rect x="104" y="104" width="584" height="792" rx="24" fill="#0E1016" stroke="#252833" stroke-width="3"/>
  <rect x="140" y="148" width="168" height="34" rx="17" fill="#FF2F72" fill-opacity="0.14" stroke="#FF2F72" stroke-width="2"/>
  <text x="224" y="171" text-anchor="middle" fill="#FF2F72" font-family="Inter, Arial, sans-serif" font-size="18" font-weight="700">MARKDOWN</text>
  <text x="140" y="252" fill="#F5F5F7" font-family="Inter, Arial, sans-serif" font-size="64" font-weight="800"># Project Brief</text>
  <text x="140" y="320" fill="#8E8E93" font-family="JetBrains Mono, monospace" font-size="28">- goals</text>
  <text x="140" y="368" fill="#8E8E93" font-family="JetBrains Mono, monospace" font-size="28">- deliverables</text>
  <text x="140" y="416" fill="#8E8E93" font-family="JetBrains Mono, monospace" font-size="28">- timeline</text>
  <rect x="140" y="484" width="512" height="92" rx="20" fill="#12141A" stroke="#252833" stroke-width="2"/>
  <text x="170" y="536" fill="#F5F5F7" font-family="JetBrains Mono, monospace" font-size="26">**Client-ready .docx**</text>
  <rect x="772" y="156" width="732" height="688" rx="28" fill="#F7F7F8"/>
  <rect x="838" y="218" width="120" height="150" rx="14" fill="#2952CC"/>
  <rect x="870" y="250" width="56" height="20" rx="10" fill="#F7F7F8"/>
  <text x="898" y="323" text-anchor="middle" fill="#F7F7F8" font-family="Inter, Arial, sans-serif" font-size="58" font-weight="800">W</text>
  <text x="1004" y="286" fill="#10131A" font-family="Inter, Arial, sans-serif" font-size="66" font-weight="800">Word Output</text>
  <rect x="1004" y="330" width="378" height="20" rx="10" fill="#D9DBE3"/>
  <rect x="1004" y="372" width="420" height="20" rx="10" fill="#D9DBE3"/>
  <rect x="1004" y="414" width="344" height="20" rx="10" fill="#D9DBE3"/>
  <rect x="838" y="474" width="600" height="170" rx="20" fill="#EEF1F7"/>
  <rect x="872" y="512" width="168" height="22" rx="11" fill="#2952CC" fill-opacity="0.18"/>
  <rect x="872" y="556" width="518" height="18" rx="9" fill="#C7CDD9"/>
  <rect x="872" y="594" width="552" height="18" rx="9" fill="#C7CDD9"/>
  <text x="800" y="492" fill="#FF2F72" font-family="Inter, Arial, sans-serif" font-size="110" font-weight="900">→</text>
  <text x="104" y="940" fill="#8E8E93" font-family="Inter, Arial, sans-serif" font-size="34" font-weight="600">Browser-based conversion. No upload. No install.</text>
</svg>
